<svg xmlns="http://www.w3.org/2000/svg" viewBox="0 0 399.91 148.61">

<g fill="#35a864">
<path class="cls-1" d="M352.92,94.13l-44.25,50a13.18,13.18,0,0,1-9.87,4.45,13.16,13.16,0,0,1-9.87-21.88,3.27,3.27,0,0,0-2.45-5.44h-6.14a3.26,3.26,0,0,0-2.45,1.11L259,143.85a13.72,13.72,0,0,1-10.22,4.76,13.16,13.16,0,0,1-9.8-21.88,3.27,3.27,0,0,0-2.45-5.44h-6.14a3.26,3.26,0,0,0-2.45,1.11L209,143.85a13.72,13.72,0,0,1-10.22,4.76,13.16,13.16,0,0,1-9.8-21.88l20.75-23.5A5.57,5.57,0,0,0,205.51,94a5.6,5.6,0,0,0-4.18,1.88l-42.66,48.31a13.18,13.18,0,0,1-9.87,4.45,13.16,13.16,0,0,1-9.87-21.88l44.88-50.82a5.57,5.57,0,0,0-4.17-9.26,5.6,5.6,0,0,0-4.18,1.88l-66.79,75.63a13.18,13.18,0,0,1-9.87,4.45,13.16,13.16,0,0,1-9.87-21.88l69-78.14a5.57,5.57,0,1,0-8.34-7.38l-90.93,103a13.16,13.16,0,0,1-9.87,4.45,13.17,13.17,0,0,1-9.87-21.88L132.08,21.26a5.58,5.58,0,0,0-4.3-9.26,5.66,5.66,0,0,0-4.1,1.95L10.49,142.1a6,6,0,0,1-8.46.52H2a6,6,0,0,1-.53-8.47L114.74,5.94A17.58,17.58,0,0,1,127.91,0a17.38,17.38,0,0,1,16,10.35,17.37,17.37,0,0,1-2.85,18.86L47.92,134.67a1.16,1.16,0,0,0,.88,1.94,1.16,1.16,0,0,0,.87-.39L140.6,33.27a17.58,17.58,0,0,1,13.17-5.94,17.58,17.58,0,0,1,13.17,29.2l-69,78.14a1.17,1.17,0,0,0,.88,1.94,1.16,1.16,0,0,0,.87-.39l66.8-75.63a17.58,17.58,0,0,1,13.17-5.94,17.58,17.58,0,0,1,13.17,29.2l-44.89,50.82a1.17,1.17,0,0,0,.88,1.94,1.16,1.16,0,0,0,.87-.39l42.38-48A18.08,18.08,0,0,1,205.21,82a17.58,17.58,0,0,1,13.47,29.2l-20.76,23.5a1.17,1.17,0,0,0,.88,1.94,1.16,1.16,0,0,0,.87-.39l19.23-21.77a15.26,15.26,0,0,1,11.44-5.16h6.14a15.27,15.27,0,0,1,11.44,25.38,1.17,1.17,0,0,0,.88,1.94,1.2,1.2,0,0,0,.88-.39l19.22-21.77a15.26,15.26,0,0,1,11.44-5.16h6.14a15.27,15.27,0,0,1,11.44,25.38,1.17,1.17,0,0,0,.88,1.94,1.2,1.2,0,0,0,.88-.39L344.4,85.66a9.14,9.14,0,0,0,5.06,3.1A9.37,9.37,0,0,0,352.92,94.13Z"/>
<path class="cls-2" d="M387.8,87c-5.3,4.32-15.35,8.34-23.67,8.34-7.08,0-11.43-2.71-12.57-6.35a6.48,6.48,0,0,1-.23-1,6.63,6.63,0,0,1-.07-1h0s0,0,0,0a6.56,6.56,0,0,1,.12-1.26,5.44,5.44,0,0,1,.33-1.11c1-2.49,3.45-4.5,7.35-5.41.35-.09.71-.16,1.09-.22h0c.34-.06.68-.11,1-.15h0a24.59,24.59,0,0,1,2.93-.17,37.75,37.75,0,0,1,13.55,2.49c.34.13.69.27,1,.42s.68.28,1,.43A36.76,36.76,0,0,1,387.8,87Z"/>
<path class="cls-2" d="M399.91,37.18c-1.29,12.59-9.17,31-20.06,41.88l-.55.55a39.69,39.69,0,0,0-15.17-3q-1.39,0-2.64.12.12-1.24.12-2.64a42.79,42.79,0,0,0-3.87-16.57h0A69.06,69.06,0,0,1,399.91,37.18Z"/><path class="cls-2" d="M359.61,74.09a24.59,24.59,0,0,1-.17,2.93h0c-4.66.88-7.63,3.09-9.1,5.74a11.23,11.23,0,0,0-.49,1.06,8.55,8.55,0,0,0-.36,1.19,7.61,7.61,0,0,0-.22,1.64c-3.64-1.14-6.35-5.5-6.35-12.57a37.4,37.4,0,0,1,8.34-23.68,33.8,33.8,0,0,1,4.11,6.69l.45,1c.15.33.29.67.44,1A40.5,40.5,0,0,1,359.61,74.09Z"/>
</g>

</svg>